PathFileType	4	(X/Y/Z)	C:/Users/beibeiliu/ov580/test_trc/User2\sequence.26_training_dense_left.trc
DataRate	CameraRate	NumFrames	NumMarkers	Units	OrigDataRate	OrigDataStartFrame	OrigNumFrames
120	120	7	19	mm	120	271	361
Frame#	Time	ThumbCMC			ThumbMCP			ThumbIP			ThumbTip			IndexMCP			IndexPIP			IndexTip			MiddleMCP			MiddlePIP			MiddleTip			RingMCP			RingPIP			RingTip			PinkyMCP			PinkyPIP			PinkyTip			BackHand1			BackHand2			BackHand3	
		X0	Y0	Z0	X1	Y1	Z1	X2	Y2	Z2	X3	Y3	Z3	X4	Y4	Z4	X5	Y5	Z5	X6	Y6	Z6	X7	Y7	Z7	X8	Y8	Z8	X9	Y9	Z9	X10	Y10	Z10	X11	Y11	Z11	X12	Y12	Z12	X13	Y13	Z13	X14	Y14	Z14	X15	Y15	Z15	X16	Y16	Z16	X17	Y17	Z17	X18	Y18	Z18	
270	2.25	-138.58	-58.1684	95.5384	-122.254	-79.0569	67.5135	-116.85	-94.5029	37.5784	-117.119	-106.307	16.0174	-143.333	-26.7431	16.2249	-143.342	-31.4189	-12.0509	-141.014	-39.3481	-38.5765	-167.434	-24.4265	7.00862	-169.544	-33.507	-21.4253	-170.161	-52.1464	-52.9672	-189.998	-23.5882	13.8556	-194.489	-28.1179	-13.1166	-189.481	-41.593	-44.9398	-218.426	-25.442	39.4091	-223.658	-16.9493	17.2886	-234.086	0.981252	-1.49486	-195.403	-20.0814	75.3295	-194.982	-21.4567	108.435	-159.557	-20.864	91.4802	
271	2.25833	-137.938	-56.3701	94.083	-122.897	-76.5963	66.5919	-117.426	-91.6792	37.4442	-121.438	-101.5	14.9214	-145.248	-25.3384	13.8301	-142.875	-30.5617	-13.183	-145.518	-36.5726	-42.7447	-174.091	-25.3994	5.7043	-171.384	-36.5648	-20.9369	-174.829	-54.8654	-47.9978	-195.029	-26.2199	15.4221	-195.353	-34.4169	-15.1786	-197.836	-49.2512	-40.9423	-220.39	-25.1036	37.4957	-232.218	-13.6108	14.7762	-238.856	0.136242	-3.6379	-199.683	-18.782	72.9214	-196.185	-19.3851	108.765	-162.629	-21.9184	88.8172	
272	2.26667	-138.32	-55.4972	95.859	-127.404	-72.4871	70.0219	-118.767	-87.4228	33.7502	-118.148	-99.0289	17.3704	-153.969	-23.435	15.882	-148.484	-27.5928	-10.4458	-151.532	-31.35	-39.0084	-179.24	-25.2198	6.16904	-181.914	-40.3671	-24.7622	-181.256	-58.1976	-47.3386	-200.097	-28.252	11.6977	-201.498	-36.8677	-12.225	-201.617	-55.8751	-39.0971	-225.366	-25.8264	40.7214	-235.605	-16.0796	17.5171	-243.904	-4.07856	2.31254	-202.421	-18.4133	77.977	-196.851	-18.5958	110.955	-163.87	-21.3845	90.8147	
273	2.275	-138.939	-52.8211	92.4045	-127.149	-70.5731	70.1733	-120.581	-83.4529	36.1815	-116.971	-95.5188	16.0717	-152.671	-23.3227	17.6122	-150.649	-25.529	-11.8143	-151.486	-27.3106	-41.1178	-182.365	-26.529	8.78916	-188.133	-39.2866	-20.6635	-188.1	-59.9942	-47.351	-207.722	-29.0744	11.8058	-207.293	-39.7323	-11.3128	-209.75	-60.8102	-39.0973	-226.972	-26.2873	41.2931	-240.781	-16.1975	18.6354	-243.866	-2.97036	4.78809	-202.935	-17.7424	78.3568	-198.534	-18.7328	110.885	-168.216	-20.3022	89.1909	
274	2.28333	-141.964	-52.3951	92.5663	-123.722	-68.3698	69.1427	-114.183	-81.1844	35.2965	-111.219	-92.9175	15.3387	-160.908	-23.435	14.8733	-158.274	-24.051	-12.5496	-159.639	-23.2949	-42.5121	-186.702	-27.5873	7.50403	-189.236	-43.3655	-22.4114	-195.391	-63.1036	-46.0748	-212.289	-31.4806	13.6999	-215.991	-43.3246	-10.6036	-217.462	-63.4459	-34.7982	-233.147	-25.7723	41.0184	-243.928	-18.8534	20.6774	-250.681	-2.73207	5.17426	-201.614	-19.699	75.7659	-198.311	-18.6563	106.402	-167.199	-19.486	90.3646	
275	2.29167	-138.594	-51.2306	91.199	-123.768	-65.8528	68.1407	-113.233	-77.2207	35.2131	-108.681	-88.4585	10.9826	-159.544	-22.9364	14.5666	-158.567	-22.9355	-16.1939	-161.538	-19.9531	-41.782	-191.505	-31.1014	6.25983	-194.419	-48.119	-23.068	-206.661	-69.9243	-44.1425	-211.296	-32.4722	16.2708	-219.596	-46.5706	-10.3839	-220.517	-68.9075	-35.5451	-230.83	-27.2444	42.2572	-242.602	-19.8172	20.7139	-252.956	-5.46354	2.56235	-206.284	-20.27	76.3346	-201.456	-16.7066	107.332	-166.798	-20.1815	85.9628	
276	2.3	-143.03	-50.5077	92.9607	-125.003	-63.5175	67.2415	-115.518	-74.5476	38.3821	-108.715	-84.4125	14.0279	-161.488	-22.9079	11.549	-162.375	-21.4223	-10.0889	-164.759	-18.6923	-37.7866	-194.315	-32.1843	6.2294	-200.178	-49.9566	-20.3672	-209.311	-74.5865	-43.9165	-217.628	-35.3055	17.0553	-224.212	-48.8368	-7.06226	-224.002	-69.7971	-30.1607	-235.002	-26.698	40.8021	-246.146	-21.68	24.0483	-254.966	-8.00358	4.1975	-204.991	-18.6834	76.6813	-200.432	-17.9	107.414	-166.938	-18.7775	86.9988	
